<svg xmlns="http://www.w3.org/2000/svg"
     width="75px" height="76px"
     viewBox="0 0 75 76">
  <path id="Selection"
        fill="black" stroke="black" stroke-width="1"
        d="M 36.00,0.47
           C 41.75,0.17 46.85,1.59 52.00,4.10
             56.18,6.13 64.29,11.18 66.92,14.89
             71.73,21.67 75.27,33.66 74.58,42.00
             74.40,44.15 73.32,46.88 72.65,49.00
             68.27,62.84 57.68,72.84 42.99,74.44
             36.26,75.17 27.36,75.41 21.00,72.86
             -2.63,63.37 -4.92,32.18 9.88,14.26
             12.00,11.70 26.07,3.00 29.00,1.88
             30.94,1.15 33.91,0.78 36.00,0.47 Z
           M 54.82,45.00
           C 55.27,42.18 55.55,40.45 55.45,37.91
             54.82,32.55 54.20,28.09 48.82,23.56
             42.98,18.64 40.63,18.98 34.00,19.45
             31.26,19.65 25.72,20.83 23.51,22.62
             18.63,26.60 17.88,33.16 18.03,38.96
             18.29,48.51 23.90,56.19 34.00,56.64
             41.22,56.96 43.64,55.91 46.64,54.27
             50.00,53.18 54.73,46.00 54.82,45.00 Z" />
</svg>